<svg width="73" height="73" viewBox="0 0 73 73" fill="none" xmlns="http://www.w3.org/2000/svg">
<g id="octicon:feed-discussion-16" clip-path="url(#clip0_4_26)">
<path id="Vector" d="M36.5 73C26.8196 73 17.5357 69.1545 10.6906 62.3094C3.84553 55.4643 0 46.1804 0 36.5C0 26.8196 3.84553 17.5357 10.6906 10.6906C17.5357 3.84553 26.8196 0 36.5 0C46.1804 0 55.4643 3.84553 62.3094 10.6906C69.1545 17.5357 73 26.8196 73 36.5C73 46.1804 69.1545 55.4643 62.3094 62.3094C55.4643 69.1545 46.1804 73 36.5 73ZM18.25 22.8125V45.625C18.25 46.835 18.7307 47.9955 19.5863 48.8512C20.442 49.7068 21.6024 50.1875 22.8125 50.1875H27.375V57.0312C27.3742 57.483 27.5075 57.9249 27.7582 58.3008C28.0088 58.6767 28.3654 58.9697 28.7827 59.1427C29.2 59.3157 29.6594 59.3609 30.1024 59.2725C30.5455 59.1842 30.9523 58.9662 31.2714 58.6464L39.7257 50.1875H50.1875C51.3975 50.1875 52.558 49.7068 53.4137 48.8512C54.2693 47.9955 54.75 46.835 54.75 45.625V22.8125C54.75 21.6024 54.2693 20.442 53.4137 19.5863C52.558 18.7307 51.3975 18.25 50.1875 18.25H22.8125C21.6024 18.25 20.442 18.7307 19.5863 19.5863C18.7307 20.442 18.25 21.6024 18.25 22.8125Z" fill="#BAC1F5"/>
</g>
<defs>
<clipPath id="clip0_4_26">
<rect width="73" height="73" fill="white"/>
</clipPath>
</defs>
</svg>
