<svg width="95" height="95" viewBox="0 0 95 95" fill="none" xmlns="http://www.w3.org/2000/svg">
<g id="fluent:group-20-filled">
<path id="Vector" d="M33.25 21.375C33.25 23.066 32.8985 24.6715 32.262 26.125H47.5C48.1299 26.125 48.734 26.3752 49.1794 26.8206C49.6248 27.266 49.875 27.8701 49.875 28.5V38H47.5C44.9804 38 42.5641 39.0009 40.7825 40.7825C39.0009 42.5641 38 44.9804 38 47.5V49.875H28.5C27.8701 49.875 27.266 49.6248 26.8206 49.1794C26.3752 48.734 26.125 48.1299 26.125 47.5V32.262C23.8845 33.2422 21.3955 33.5043 19 33.0125V47.5C19 50.0196 20.0009 52.4359 21.7825 54.2175C23.5641 55.9991 25.9804 57 28.5 57H38V66.5C38 69.0196 39.0009 71.4359 40.7825 73.2175C42.5641 74.9991 44.9804 76 47.5 76H61.9875C61.5019 73.6042 61.7639 71.1171 62.738 68.875H47.5C46.8701 68.875 46.266 68.6248 45.8206 68.1794C45.3752 67.734 45.125 67.1299 45.125 66.5V57H47.5C50.0196 57 52.4359 55.9991 54.2175 54.2175C55.9991 52.4359 57 50.0196 57 47.5V45.125H66.5C67.1299 45.125 67.734 45.3752 68.1794 45.8206C68.6248 46.266 68.875 46.8701 68.875 47.5V62.738C71.1154 61.7575 73.6045 61.4953 76 61.9875V47.5C76 44.9804 74.9991 42.5641 73.2175 40.7825C71.4359 39.0009 69.0196 38 66.5 38H57V28.5C57 25.9804 55.9991 23.5641 54.2175 21.7825C52.4359 20.0009 50.0196 19 47.5 19H33.0125C33.1692 19.7695 33.25 20.5627 33.25 21.375ZM49.875 45.125V47.5C49.875 48.1299 49.6248 48.734 49.1794 49.1794C48.734 49.6248 48.1299 49.875 47.5 49.875H45.125V47.5C45.125 46.8701 45.3752 46.266 45.8206 45.8206C46.266 45.3752 46.8701 45.125 47.5 45.125H49.875ZM28.5 21.375C28.5 23.2647 27.7493 25.0769 26.4131 26.4131C25.0769 27.7493 23.2647 28.5 21.375 28.5C19.4853 28.5 17.6731 27.7493 16.3369 26.4131C15.0007 25.0769 14.25 23.2647 14.25 21.375C14.25 19.4853 15.0007 17.6731 16.3369 16.3369C17.6731 15.0007 19.4853 14.25 21.375 14.25C23.2647 14.25 25.0769 15.0007 26.4131 16.3369C27.7493 17.6731 28.5 19.4853 28.5 21.375ZM80.75 73.625C80.75 75.5147 79.9993 77.3269 78.6631 78.6631C77.3269 79.9993 75.5147 80.75 73.625 80.75C71.7353 80.75 69.9231 79.9993 68.5869 78.6631C67.2507 77.3269 66.5 75.5147 66.5 73.625C66.5 71.7353 67.2507 69.9231 68.5869 68.5869C69.9231 67.2507 71.7353 66.5 73.625 66.5C75.5147 66.5 77.3269 67.2507 78.6631 68.5869C79.9993 69.9231 80.75 71.7353 80.75 73.625ZM80.75 21.375C80.75 23.2647 79.9993 25.0769 78.6631 26.4131C77.3269 27.7493 75.5147 28.5 73.625 28.5C71.7353 28.5 69.9231 27.7493 68.5869 26.4131C67.2507 25.0769 66.5 23.2647 66.5 21.375C66.5 19.4853 67.2507 17.6731 68.5869 16.3369C69.9231 15.0007 71.7353 14.25 73.625 14.25C75.5147 14.25 77.3269 15.0007 78.6631 16.3369C79.9993 17.6731 80.75 19.4853 80.75 21.375ZM28.5 73.625C28.5 75.5147 27.7493 77.3269 26.4131 78.6631C25.0769 79.9993 23.2647 80.75 21.375 80.75C19.4853 80.75 17.6731 79.9993 16.3369 78.6631C15.0007 77.3269 14.25 75.5147 14.25 73.625C14.25 71.7353 15.0007 69.9231 16.3369 68.5869C17.6731 67.2507 19.4853 66.5 21.375 66.5C23.2647 66.5 25.0769 67.2507 26.4131 68.5869C27.7493 69.9231 28.5 71.7353 28.5 73.625Z" fill="#BAC1F5"/>
</g>
</svg>
