<svg width="95" height="95" viewBox="0 0 95 95" fill="none" xmlns="http://www.w3.org/2000/svg">
<g id="pajamas:issue-type-requirements" clip-path="url(#clip0_4_20)">
<path id="Vector" fill-rule="evenodd" clip-rule="evenodd" d="M23.75 0C17.4511 0 11.4102 2.50223 6.95621 6.95621C2.50223 11.4102 0 17.4511 0 23.75L0 71.25C0 77.5489 2.50223 83.5898 6.95621 88.0438C11.4102 92.4978 17.4511 95 23.75 95H71.25C77.5489 95 83.5898 92.4978 88.0438 88.0438C92.4978 83.5898 95 77.5489 95 71.25V23.75C95 17.4511 92.4978 11.4102 88.0438 6.95621C83.5898 2.50223 77.5489 0 71.25 0L23.75 0ZM23.75 28.2031C23.75 27.0221 24.2192 25.8894 25.0543 25.0543C25.8894 24.2192 27.0221 23.75 28.2031 23.75H66.7969C67.9779 23.75 69.1106 24.2192 69.9457 25.0543C70.7808 25.8894 71.25 27.0221 71.25 28.2031C71.25 29.3842 70.7808 30.5168 69.9457 31.352C69.1106 32.1871 67.9779 32.6562 66.7969 32.6562H28.2031C27.0221 32.6562 25.8894 32.1871 25.0543 31.352C24.2192 30.5168 23.75 29.3842 23.75 28.2031ZM81.8187 62.1656C82.6527 63.0006 83.1211 64.1324 83.1211 65.3125C83.1211 66.4926 82.6527 67.6244 81.8187 68.4594L68.4594 81.8187C67.6244 82.6527 66.4926 83.1211 65.3125 83.1211C64.1324 83.1211 63.0006 82.6527 62.1656 81.8187L54.7438 74.3969C54.3062 73.9892 53.9553 73.4976 53.7119 72.9513C53.4685 72.4051 53.3377 71.8154 53.3271 71.2175C53.3166 70.6196 53.4266 70.0256 53.6505 69.4711C53.8745 68.9166 54.2079 68.4129 54.6307 67.9901C55.0536 67.5672 55.5573 67.2339 56.1118 67.0099C56.6663 66.7859 57.2602 66.6759 57.8581 66.6865C58.456 66.697 59.0457 66.8279 59.5919 67.0713C60.1382 67.3147 60.6298 67.6656 61.0375 68.1031L65.3125 72.3781L75.525 62.1656C76.36 61.3317 77.4918 60.8633 78.6719 60.8633C79.852 60.8633 80.9838 61.3317 81.8187 62.1656ZM23.75 47.5C23.75 46.319 24.2192 45.1863 25.0543 44.3512C25.8894 43.516 27.0221 43.0469 28.2031 43.0469H66.7969C67.9779 43.0469 69.1106 43.516 69.9457 44.3512C70.7808 45.1863 71.25 46.319 71.25 47.5C71.25 48.681 70.7808 49.8137 69.9457 50.6488C69.1106 51.484 67.9779 51.9531 66.7969 51.9531H28.2031C27.0221 51.9531 25.8894 51.484 25.0543 50.6488C24.2192 49.8137 23.75 48.681 23.75 47.5ZM23.75 66.7969C23.75 65.6158 24.2192 64.4832 25.0543 63.648C25.8894 62.8129 27.0221 62.3438 28.2031 62.3438H43.0469C44.2279 62.3438 45.3606 62.8129 46.1957 63.648C47.0308 64.4832 47.5 65.6158 47.5 66.7969C47.5 67.9779 47.0308 69.1106 46.1957 69.9457C45.3606 70.7808 44.2279 71.25 43.0469 71.25H28.2031C27.0221 71.25 25.8894 70.7808 25.0543 69.9457C24.2192 69.1106 23.75 67.9779 23.75 66.7969Z" fill="#BAC1F5"/>
</g>
<defs>
<clipPath id="clip0_4_20">
<rect width="95" height="95" fill="white"/>
</clipPath>
</defs>
</svg>
