<svg width="106" height="106" viewBox="0 0 106 106" fill="none" xmlns="http://www.w3.org/2000/svg">
<g id="ph:code-fill">
<path id="Vector" d="M89.4375 16.5625H16.5625C14.8054 16.5625 13.1203 17.2605 11.8779 18.5029C10.6355 19.7453 9.9375 21.4304 9.9375 23.1875V82.8125C9.9375 84.5696 10.6355 86.2547 11.8779 87.4971C13.1203 88.7395 14.8054 89.4375 16.5625 89.4375H89.4375C91.1946 89.4375 92.8797 88.7395 94.1221 87.4971C95.3645 86.2547 96.0625 84.5696 96.0625 82.8125V23.1875C96.0625 21.4304 95.3645 19.7453 94.1221 18.5029C92.8797 17.2605 91.1946 16.5625 89.4375 16.5625ZM38.425 60.2875C39.1278 60.8146 39.5925 61.5993 39.7167 62.469C39.841 63.3387 39.6146 64.2222 39.0875 64.925C38.5604 65.6278 37.7757 66.0925 36.906 66.2167C36.0363 66.341 35.1528 66.1146 34.45 65.5875L21.2 55.65C20.7886 55.3414 20.4547 54.9414 20.2247 54.4814C19.9947 54.0214 19.875 53.5142 19.875 53C19.875 52.4858 19.9947 51.9786 20.2247 51.5186C20.4547 51.0586 20.7886 50.6586 21.2 50.35L34.45 40.4125C35.1528 39.8854 36.0363 39.659 36.906 39.7833C37.7757 39.9075 38.5604 40.3722 39.0875 41.075C39.6146 41.7778 39.841 42.6613 39.7167 43.531C39.5925 44.4007 39.1278 45.1854 38.425 45.7125L28.707 53L38.425 60.2875ZM62.8091 30.7234L49.5591 77.0984C49.4462 77.5241 49.2495 77.923 48.9806 78.2717C48.7117 78.6205 48.376 78.9121 47.993 79.1296C47.61 79.347 47.1876 79.4859 46.7503 79.5382C46.313 79.5904 45.8697 79.5549 45.4463 79.4338C45.0229 79.3126 44.6279 79.1083 44.2844 78.8327C43.9409 78.5571 43.6558 78.2158 43.4458 77.8287C43.2358 77.4416 43.1051 77.0165 43.0613 76.5783C43.0175 76.1401 43.0616 75.6975 43.1909 75.2766L56.4409 28.9016C56.6955 28.0723 57.2653 27.3761 58.0278 26.9624C58.7902 26.5488 59.6845 26.4507 60.5185 26.6893C61.3525 26.9279 62.0596 27.4841 62.4879 28.2384C62.9162 28.9928 63.0316 29.885 62.8091 30.7234ZM84.8 55.65L71.55 65.5875C70.8472 66.1146 69.9637 66.341 69.094 66.2167C68.2243 66.0925 67.4396 65.6278 66.9125 64.925C66.3854 64.2222 66.159 63.3387 66.2833 62.469C66.4075 61.5993 66.8722 60.8146 67.575 60.2875L77.293 53L67.575 45.7125C67.227 45.4515 66.9338 45.1245 66.7122 44.7502C66.4906 44.3759 66.3448 43.9616 66.2833 43.531C66.2218 43.1003 66.2457 42.6618 66.3536 42.2404C66.4616 41.819 66.6515 41.423 66.9125 41.075C67.1735 40.727 67.5005 40.4338 67.8748 40.2122C68.2491 39.9905 68.6634 39.8448 69.094 39.7833C69.5247 39.7218 69.9632 39.7457 70.3846 39.8536C70.806 39.9616 71.202 40.1515 71.55 40.4125L84.8 50.35C85.2114 50.6586 85.5453 51.0586 85.7753 51.5186C86.0053 51.9786 86.125 52.4858 86.125 53C86.125 53.5142 86.0053 54.0214 85.7753 54.4814C85.5453 54.9414 85.2114 55.3414 84.8 55.65Z" fill="#BAC1F5"/>
</g>
</svg>
